<?xml version="1.0" encoding="UTF-8"?>
<svg width="2154px" height="384px" viewBox="0 0 2154 384" version="1.1" xmlns="http://www.w3.org/2000/svg" xmlns:xlink="http://www.w3.org/1999/xlink">
    <!-- Generator: Sketch 50.2 (55047) - http://www.bohemiancoding.com/sketch -->
    <title>Artboard</title>
    <desc>Created with Sketch.</desc>
    <defs>
        <linearGradient x1="30.7703833%" y1="18.9992282%" x2="73.2705132%" y2="77.3899282%" id="linearGradient-1">
            <stop stop-color="#FE69AE" offset="0%"></stop>
            <stop stop-color="#D6134E" offset="100%"></stop>
        </linearGradient>
        <linearGradient x1="0%" y1="0%" x2="100%" y2="100%" id="linearGradient-2">
            <stop stop-color="#ED2B86" offset="0%"></stop>
            <stop stop-color="#D6134E" offset="100%"></stop>
        </linearGradient>
        <linearGradient x1="0%" y1="24.7508293%" x2="100%" y2="72.3053132%" id="linearGradient-3">
            <stop stop-color="#D6134E" offset="0%"></stop>
            <stop stop-color="#5E011D" offset="100%"></stop>
        </linearGradient>
        <linearGradient x1="30.7703833%" y1="18.9992282%" x2="73.2705132%" y2="77.3899282%" id="linearGradient-4">
            <stop stop-color="#23C3BB" offset="0%"></stop>
            <stop stop-color="#07918A" offset="95.792949%"></stop>
        </linearGradient>
        <linearGradient x1="0%" y1="0%" x2="100%" y2="100%" id="linearGradient-5">
            <stop stop-color="#18AFA7" offset="0%"></stop>
            <stop stop-color="#07918A" offset="100%"></stop>
        </linearGradient>
        <linearGradient x1="0%" y1="26.9172763%" x2="100%" y2="69.7571618%" id="linearGradient-6">
            <stop stop-color="#07918A" offset="0%"></stop>
            <stop stop-color="#014743" offset="100%"></stop>
        </linearGradient>
    </defs>
    <g id="Artboard" stroke="none" stroke-width="1" fill="none" fill-rule="evenodd">
        <g id="c" transform="translate(1.000000, 130.000000)">
            <path d="M178.697761,77.0000636 L118,49 L56.8325861,77.216716 L0,54 L117.5,0 L235,54 L178.697761,77.0000636 Z" id="Rectangle-3" fill="url(#linearGradient-1)"></path>
            <path d="M56.8325861,77.216716 L56,77.6007905 L56,154.399209 L117.5,182.769348 L117.5,253 L0,199 L0,54 L56.8325861,77.216716 Z" id="Rectangle-3-Copy" fill="url(#linearGradient-2)"></path>
            <path d="M235,199 L117.5,253 L117.5,182.769348 L118,183 L180,154.399209 L235,199 Z M201.455828,67.703151 L180,77.6007905 L178.697761,77.0000636 L201.455828,67.703151 Z" id="Rectangle-3-Copy-2" fill="url(#linearGradient-3)"></path>
        </g>
        <g id="u" transform="translate(256.000000, 130.000000)">
            <path d="M56,28.2638298 L56,154.399209 L117.5,182.769348 L117.5,253 L0,199 L0,54 L56,28.2638298 Z" id="Rectangle-3-Copy" fill="url(#linearGradient-2)"></path>
            <path d="M117.5,182.769348 L118,183 L180,154.399209 L180,28.7234043 L235,54 L235,199 L117.5,253 L117.5,182.769348 Z" id="Rectangle-3-Copy-2" fill="url(#linearGradient-3)"></path>
        </g>
        <g id="b" transform="translate(511.000000, 1.000000)">
            <g id="Group">
                <path d="M178.697761,206.000064 L118,178 L56.8325861,206.216716 L0,183 L117.5,129 L235,183 L178.697761,206.000064 Z" id="Rectangle-3" fill="url(#linearGradient-1)"></path>
                <path d="M56,22.8765957 L56,283.399209 L117.5,311.769348 L117.5,382 L0,328 L0,0 L56,22.8765957 Z" id="Rectangle-3-Copy" fill="url(#linearGradient-2)"></path>
                <path d="M117.5,311.769348 L118,312 L180,283.399209 L180,206.600791 L178.697761,206.000064 L235,183 L235,328 L117.5,382 L117.5,311.769348 Z" id="Rectangle-3-Copy-2" fill="url(#linearGradient-3)"></path>
            </g>
        </g>
        <g id="i" transform="translate(766.000000, 76.000000)">
            <polygon id="Rectangle-2" fill="url(#linearGradient-1)" points="56 84 112 107 56.5 130 0 107"></polygon>
            <polygon id="Rectangle" fill="url(#linearGradient-2)" points="0 107 56.5 130 56.5 278 0 252"></polygon>
            <polygon id="Rectangle-Copy" fill="url(#linearGradient-3)" points="56.5 130 112 107 112 252 56 278"></polygon>
            <polygon id="Rectangle-2-Copy" fill="url(#linearGradient-4)" points="56 0 112 23 56.5 46 0 23"></polygon>
            <polygon id="Rectangle-Copy-3" fill="url(#linearGradient-5)" points="0 23 56.5 46 56.5 113 0 87"></polygon>
            <polygon id="Rectangle-Copy-2" fill="url(#linearGradient-6)" points="56.5 46 112 23 112 87 56 113"></polygon>
        </g>
        <g id="c" transform="translate(898.000000, 130.000000)">
            <path d="M178.697761,77.0000636 L118,49 L56.8325861,77.216716 L0,54 L117.5,0 L235,54 L178.697761,77.0000636 Z" id="Rectangle-3" fill="url(#linearGradient-1)"></path>
            <path d="M56.8325861,77.216716 L56,77.6007905 L56,154.399209 L117.5,182.769348 L117.5,253 L0,199 L0,54 L56.8325861,77.216716 Z" id="Rectangle-3-Copy" fill="url(#linearGradient-2)"></path>
            <path d="M235,199 L117.5,253 L117.5,182.769348 L118,183 L180,154.399209 L235,199 Z M201.455828,67.703151 L180,77.6007905 L178.697761,77.0000636 L201.455828,67.703151 Z" id="Rectangle-3-Copy-2" fill="url(#linearGradient-3)"></path>
        </g>
        <g id="o" transform="translate(1153.000000, 130.000000)">
            <path d="M178.697761,77.0000636 L118,49 L56.8325861,77.216716 L0,54 L117.5,0 L235,54 L178.697761,77.0000636 Z" id="Rectangle-3" fill="url(#linearGradient-1)"></path>
            <path d="M56.8325861,77.216716 L56,77.6007905 L56,154.399209 L117.5,182.769348 L117.5,253 L0,199 L0,54 L56.8325861,77.216716 Z" id="Rectangle-3-Copy" fill="url(#linearGradient-2)"></path>
            <path d="M117.5,182.769348 L118,183 L180,154.399209 L180,77.6007905 L178.697761,77.0000636 L235,54 L235,199 L117.5,253 L117.5,182.769348 Z" id="Rectangle-3-Copy-2" fill="url(#linearGradient-3)"></path>
        </g>
        <g id="u" transform="translate(1408.000000, 130.000000)">
            <path d="M56,28.2638298 L56,154.399209 L117.5,182.769348 L117.5,253 L0,199 L0,54 L56,28.2638298 Z" id="Rectangle-3-Copy" fill="url(#linearGradient-2)"></path>
            <path d="M117.5,182.769348 L118,183 L180,154.399209 L180,28.7234043 L235,54 L235,199 L117.5,253 L117.5,182.769348 Z" id="Rectangle-3-Copy-2" fill="url(#linearGradient-3)"></path>
        </g>
        <g id="n" transform="translate(1663.000000, 130.000000)">
            <path d="M178.697761,77.0000636 L118,49 L56.8325861,77.216716 L0,54 L117.5,0 L235,54 L178.697761,77.0000636 Z" id="Rectangle-3" fill="url(#linearGradient-1)"></path>
            <path d="M56.8325861,77.216716 L56,77.6007905 L56,224.73617 L0,199 L0,54 L56.8325861,77.216716 Z" id="Rectangle-3-Copy" fill="url(#linearGradient-2)"></path>
            <path d="M180,224.276596 L180,77.6007905 L178.697761,77.0000636 L235,54 L235,199 L180,224.276596 Z" id="Rectangle-3-Copy-2" fill="url(#linearGradient-3)"></path>
        </g>
        <g id="t" transform="translate(1918.000000, 1.000000)">
            <g id="Group">
                <path d="M118,129.229787 L118,178 L56.8325861,206.216716 L0,183 L117.5,129 L118,129.229787 Z" id="Rectangle-3" fill="url(#linearGradient-1)"></path>
                <path d="M56,22.8765957 L56,283.399209 L117.5,311.769348 L117.5,382 L0,328 L0,0 L56,22.8765957 Z" id="Rectangle-3-Copy" fill="url(#linearGradient-2)"></path>
                <path d="M235,327 L235,328 L117.5,382 L117.5,311.769348 L118,312 L180,283.399209 L235,327 Z" id="Rectangle-3-Copy-2" fill="url(#linearGradient-3)"></path>
            </g>
        </g>
    </g>
</svg>